<!DOCTYPE svg PUBLIC "-//W3C//DTD SVG 1.1//EN" "http://www.w3.org/Graphics/SVG/1.1/DTD/svg11.dtd">
<!-- Uploaded to: SVG Repo, www.svgrepo.com, Transformed by: SVG Repo Mixer Tools -->
<svg width="800px" height="800px" viewBox="0 0 24 24" xmlns="http://www.w3.org/2000/svg" fill="none">
<g id="SVGRepo_bgCarrier" stroke-width="0"/>
<g id="SVGRepo_tracerCarrier" stroke-linecap="round" stroke-linejoin="round"/>
<g id="SVGRepo_iconCarrier">
<path fill="#62a0ea" fill-rule="evenodd" d="M3 12a3 3 0 0 1 3-3h12a3 3 0 0 1 3 3v7a3 3 0 0 1-3 3H6a3 3 0 0 1-3-3v-7zm10 2a1 1 0 1 0-2 0v3a1 1 0 1 0 2 0v-3z" clip-rule="evenodd"/>
<path stroke="#62a0ea" stroke-linecap="round" stroke-linejoin="round" stroke-width="2" d="M8 10V7a4 4 0 0 1 4-4v0a4 4 0 0 1 4 4v3"/>
</g>
</svg>